<?xml version="1.0" encoding="utf-8"?>
<!-- Generator: Adobe Illustrator 26.0.0, SVG Export Plug-In . SVG Version: 6.00 Build 0)  -->
<svg version="1.1" id="Layer_1" xmlns="http://www.w3.org/2000/svg" xmlns:xlink="http://www.w3.org/1999/xlink" x="0px" y="0px"
	 viewBox="0 0 500 353" style="enable-background:new 0 0 500 353;" xml:space="preserve">
<style type="text/css">
	.st0{display:none;}
	.st1{fill:#6E429A;}
	.st2{fill:#FFFFFF;}
</style>
<rect id="BG" class="st0" width="500" height="353"/>
<g id="Logo">
	<g>
		<path class="st1" d="M445.5,130.7c-1.9,0-3.7-0.3-5.5-1L250,56.3L60,129.7c-1.8,0.7-3.6,1-5.5,1c-6.3,0-12-3.9-14.3-9.8
			c-0.7-1.8-1-3.6-1-5.5c0-6.3,3.9-12,9.8-14.3l201-77.2l201,77.2c5.9,2.2,9.8,8,9.8,14.3c0,1.9-0.3,3.7-1,5.5
			C457.5,126.8,451.8,130.7,445.5,130.7z"/>
		<g>
			<path class="st1" d="M250,25l200.6,77.1c5.7,2.2,9.2,7.6,9.2,13.3c0,1.7-0.3,3.4-1,5.1c-2.2,5.7-7.6,9.2-13.3,9.2
				c-1.7,0-3.4-0.3-5.1-1L250,55.2L59.6,128.8c-1.7,0.6-3.4,1-5.1,1c-5.7,0-11.2-3.5-13.3-9.2c-0.6-1.7-1-3.4-1-5.1
				c0-5.7,3.5-11.2,9.2-13.3L250,25 M250,22.9l-0.7,0.3L48.7,100.2c-6.2,2.4-10.4,8.5-10.4,15.2c0,2,0.4,4,1.1,5.8
				c2.4,6.2,8.5,10.4,15.2,10.4c2,0,4-0.4,5.8-1.1L250,57.4l189.6,73.3c1.9,0.7,3.8,1.1,5.8,1.1c6.7,0,12.8-4.2,15.2-10.4
				c0.7-1.9,1.1-3.8,1.1-5.8c0-6.7-4.2-12.8-10.4-15.2L250.7,23.1L250,22.9L250,22.9z"/>
		</g>
	</g>
	<g>
		<path class="st2" d="M309.6,207.2c16.9,0,30.6,13.7,30.6,30.6c0,16.9-13.7,30.6-30.6,30.6H190.4c-16.9,0-30.6-13.7-30.6-30.6
			c0-16.9,13.7-30.6,30.6-30.6H309.6 M309.6,147.2H190.4c-50,0-90.6,40.7-90.6,90.6s40.7,90.6,90.6,90.6h119.1
			c50,0,90.6-40.7,90.6-90.6S359.6,147.2,309.6,147.2L309.6,147.2z"/>
	</g>
</g>
</svg>
